<svg width="" height="" viewBox="0 0 16 16"  xmlns="http://www.w3.org/2000/svg">
<path d="M10 15.1666H6.00004C2.38004 15.1666 0.833374 13.6199 0.833374 9.99992V5.99992C0.833374 2.37992 2.38004 0.833252 6.00004 0.833252H10C13.62 0.833252 15.1667 2.37992 15.1667 5.99992V9.99992C15.1667 13.6199 13.62 15.1666 10 15.1666ZM6.00004 1.83325C2.92671 1.83325 1.83337 2.92659 1.83337 5.99992V9.99992C1.83337 13.0733 2.92671 14.1666 6.00004 14.1666H10C13.0734 14.1666 14.1667 13.0733 14.1667 9.99992V5.99992C14.1667 2.92659 13.0734 1.83325 10 1.83325H6.00004Z" fill=""/>
<path d="M10.3333 12.8334C9.32 12.8334 8.5 12.0134 8.5 11.0001V5.00008C8.5 3.98675 9.32 3.16675 10.3333 3.16675C11.3467 3.16675 12.1667 3.98675 12.1667 5.00008V11.0001C12.1667 12.0134 11.3467 12.8334 10.3333 12.8334ZM10.3333 4.16675C9.87333 4.16675 9.5 4.54008 9.5 5.00008V11.0001C9.5 11.4601 9.87333 11.8334 10.3333 11.8334C10.7933 11.8334 11.1667 11.4601 11.1667 11.0001V5.00008C11.1667 4.54008 10.7933 4.16675 10.3333 4.16675Z" fill=""/>
<path d="M5.66671 12.8333C4.65337 12.8333 3.83337 12.0133 3.83337 10.9999V8.66659C3.83337 7.65325 4.65337 6.83325 5.66671 6.83325C6.68004 6.83325 7.50004 7.65325 7.50004 8.66659V10.9999C7.50004 12.0133 6.68004 12.8333 5.66671 12.8333ZM5.66671 7.83325C5.20671 7.83325 4.83337 8.20659 4.83337 8.66659V10.9999C4.83337 11.4599 5.20671 11.8333 5.66671 11.8333C6.12671 11.8333 6.50004 11.4599 6.50004 10.9999V8.66659C6.50004 8.20659 6.12671 7.83325 5.66671 7.83325Z" fill=""/>
</svg>
