<svg width="" height="" viewBox="0 0 24 24"  xmlns="http://www.w3.org/2000/svg">
<g id="vuesax/outline/eye-slash">
<g id="eye-slash">
<path id="Vector" d="M9.46998 15.2799C9.27998 15.2799 9.08998 15.2099 8.93998 15.0599C8.11998 14.2399 7.66998 13.1499 7.66998 11.9999C7.66998 9.60992 9.60998 7.66992 12 7.66992C13.15 7.66992 14.24 8.11992 15.06 8.93992C15.2 9.07992 15.28 9.26992 15.28 9.46992C15.28 9.66992 15.2 9.85992 15.06 9.99992L9.99998 15.0599C9.84998 15.2099 9.65998 15.2799 9.46998 15.2799ZM12 9.16992C10.44 9.16992 9.16998 10.4399 9.16998 11.9999C9.16998 12.4999 9.29998 12.9799 9.53998 13.3999L13.4 9.53992C12.98 9.29992 12.5 9.16992 12 9.16992Z" fill=""/>
<path id="Vector_2" d="M5.60003 18.51C5.43003 18.51 5.25003 18.45 5.11003 18.33C4.04003 17.42 3.08003 16.3 2.26003 15C1.20003 13.35 1.20003 10.66 2.26003 8.99998C4.70003 5.17998 8.25003 2.97998 12 2.97998C14.2 2.97998 16.37 3.73998 18.27 5.16998C18.6 5.41998 18.67 5.88998 18.42 6.21998C18.17 6.54998 17.7 6.61998 17.37 6.36998C15.73 5.12998 13.87 4.47998 12 4.47998C8.77003 4.47998 5.68003 6.41998 3.52003 9.80998C2.77003 10.98 2.77003 13.02 3.52003 14.19C4.27003 15.36 5.13003 16.37 6.08003 17.19C6.39003 17.46 6.43003 17.93 6.16003 18.25C6.02003 18.42 5.81003 18.51 5.60003 18.51Z" fill=""/>
<path id="Vector_3" d="M12 21.02C10.67 21.02 9.37 20.75 8.12 20.22C7.74 20.06 7.56 19.62 7.72 19.24C7.88 18.86 8.32 18.68 8.7 18.84C9.76 19.29 10.87 19.52 11.99 19.52C15.22 19.52 18.31 17.58 20.47 14.19C21.22 13.02 21.22 10.98 20.47 9.81C20.16 9.32 19.82 8.85 19.46 8.41C19.2 8.09 19.25 7.62 19.57 7.35C19.89 7.09 20.36 7.13 20.63 7.46C21.02 7.94 21.4 8.46 21.74 9C22.8 10.65 22.8 13.34 21.74 15C19.3 18.82 15.75 21.02 12 21.02Z" fill=""/>
<path id="Vector_4" d="M12.69 16.2701C12.34 16.2701 12.02 16.0201 11.95 15.6601C11.87 15.2501 12.14 14.8601 12.55 14.7901C13.65 14.5901 14.57 13.6701 14.77 12.5701C14.85 12.1601 15.24 11.9001 15.65 11.9701C16.06 12.0501 16.33 12.4401 16.25 12.8501C15.93 14.5801 14.55 15.9501 12.83 16.2701C12.78 16.2601 12.74 16.2701 12.69 16.2701Z" fill=""/>
<path id="Vector_5" d="M2 22.75C1.81 22.75 1.62 22.68 1.47 22.53C1.18 22.24 1.18 21.76 1.47 21.47L8.94 14C9.23 13.71 9.71 13.71 10 14C10.29 14.29 10.29 14.77 10 15.06L2.53 22.53C2.38 22.68 2.19 22.75 2 22.75Z" fill=""/>
<path id="Vector_6" d="M14.53 10.2199C14.34 10.2199 14.15 10.1499 14 9.99994C13.71 9.70994 13.71 9.22994 14 8.93994L21.47 1.46994C21.76 1.17994 22.24 1.17994 22.53 1.46994C22.82 1.75994 22.82 2.23994 22.53 2.52994L15.06 9.99994C14.91 10.1499 14.72 10.2199 14.53 10.2199Z" fill=""/>
</g>
</g>
</svg>
