<svg width="" height="" viewBox="0 0 24 24"  xmlns="http://www.w3.org/2000/svg">
<g id="vuesax/outline/eye">
<g id="eye">
<path id="Vector" d="M12 16.3299C9.60998 16.3299 7.66998 14.3899 7.66998 11.9999C7.66998 9.60992 9.60998 7.66992 12 7.66992C14.39 7.66992 16.33 9.60992 16.33 11.9999C16.33 14.3899 14.39 16.3299 12 16.3299ZM12 9.16992C10.44 9.16992 9.16998 10.4399 9.16998 11.9999C9.16998 13.5599 10.44 14.8299 12 14.8299C13.56 14.8299 14.83 13.5599 14.83 11.9999C14.83 10.4399 13.56 9.16992 12 9.16992Z" fill=""/>
<path id="Vector_2" d="M12 21.02C8.24002 21.02 4.69002 18.82 2.25002 15C1.19002 13.35 1.19002 10.66 2.25002 8.99998C4.70002 5.17998 8.25002 2.97998 12 2.97998C15.75 2.97998 19.3 5.17998 21.74 8.99998C22.8 10.65 22.8 13.34 21.74 15C19.3 18.82 15.75 21.02 12 21.02ZM12 4.47998C8.77002 4.47998 5.68002 6.41998 3.52002 9.80998C2.77002 10.98 2.77002 13.02 3.52002 14.19C5.68002 17.58 8.77002 19.52 12 19.52C15.23 19.52 18.32 17.58 20.48 14.19C21.23 13.02 21.23 10.98 20.48 9.80998C18.32 6.41998 15.23 4.47998 12 4.47998Z" fill=""/>
</g>
</g>
</svg>
