<svg width="" height="" viewBox="0 0 16 16" fill="" xmlns="http://www.w3.org/2000/svg">
<path d="M14 13.5H7.33337C7.06004 13.5 6.83337 13.2733 6.83337 13C6.83337 12.7267 7.06004 12.5 7.33337 12.5H14C14.2734 12.5 14.5 12.7267 14.5 13C14.5 13.2733 14.2734 13.5 14 13.5Z" fill=""/>
<path d="M14 8.83325H7.33337C7.06004 8.83325 6.83337 8.60658 6.83337 8.33325C6.83337 8.05992 7.06004 7.83325 7.33337 7.83325H14C14.2734 7.83325 14.5 8.05992 14.5 8.33325C14.5 8.60658 14.2734 8.83325 14 8.83325Z" fill=""/>
<path d="M14 4.16675H7.33337C7.06004 4.16675 6.83337 3.94008 6.83337 3.66675C6.83337 3.39341 7.06004 3.16675 7.33337 3.16675H14C14.2734 3.16675 14.5 3.39341 14.5 3.66675C14.5 3.94008 14.2734 4.16675 14 4.16675Z" fill=""/>
<ellipse cx="3.33333" cy="3.66659" rx="1.33333" ry="1.33333" fill=""/>
<ellipse cx="3.33333" cy="8.33333" rx="1.33333" ry="1.33333" fill=""/>
<ellipse cx="3.33333" cy="13.0001" rx="1.33333" ry="1.33333" fill=""/>
</svg>
