<svg width="" height="" viewBox="0 0 24 24"  xmlns="http://www.w3.org/2000/svg">
<g id="vuesax/outline/arrow-square-up">
<g id="arrow-square-up">
<path id="Vector" d="M15 22.75H9C3.57 22.75 1.25 20.43 1.25 15V9C1.25 3.57 3.57 1.25 9 1.25H15C20.43 1.25 22.75 3.57 22.75 9V15C22.75 20.43 20.43 22.75 15 22.75ZM9 2.75C4.39 2.75 2.75 4.39 2.75 9V15C2.75 19.61 4.39 21.25 9 21.25H15C19.61 21.25 21.25 19.61 21.25 15V9C21.25 4.39 19.61 2.75 15 2.75H9Z" fill=""/>
<path id="Vector_2" d="M15.53 14.2101C15.34 14.2101 15.15 14.1401 15 13.9901L12 10.9901L8.99997 13.9901C8.70997 14.2801 8.22997 14.2801 7.93997 13.9901C7.64997 13.7001 7.64997 13.2201 7.93997 12.9301L11.47 9.40012C11.76 9.11012 12.24 9.11012 12.53 9.40012L16.06 12.9301C16.35 13.2201 16.35 13.7001 16.06 13.9901C15.91 14.1401 15.72 14.2101 15.53 14.2101Z" fill=""/>
</g>
</g>
</svg>
