<svg width="282" height="140" viewBox="0 0 282 140"  xmlns="http://www.w3.org/2000/svg">
<path fill-rule="evenodd" clip-rule="evenodd" d="M8.61855 7.54157C16.3195 9.14731 24.0205 10.7148 31.7215 12.3588C39.4225 14.0028 47.1235 15.6467 54.8244 17.3289C61.4858 27.0398 63.6806 35.5655 63.6421 43.8236C63.6421 52.0052 61.2933 60.1103 54.2084 68.3302H8.73406C17.3977 58.5046 20.1315 48.8702 20.401 39.1975C20.7091 29.4866 18.6298 19.4317 8.61855 7.54157Z" fill="#00B3F0"/>
<path d="M41.6558 51.814C39.9615 51.6993 38.2288 51.2023 36.4576 50.2848C36.6886 47.5703 36.8426 44.8176 36.9582 42.1031C37.6898 42.8678 38.4214 43.3648 39.1529 43.5942C39.8845 43.8618 40.9242 44.0147 42.2333 44.1677C44.2741 44.3588 45.8528 43.9 46.9694 42.7149C48.0861 41.5679 48.6637 40.0769 48.6251 38.28C48.5866 36.3684 47.9321 34.6479 46.6999 33.1187C45.4292 31.5129 43.812 30.5954 41.8483 30.2895C40.1541 30.0219 38.7679 30.366 37.6127 31.2453C36.4576 32.1629 35.803 33.501 35.649 35.2596C35.572 40.765 35.726 46.3469 34.8019 51.7376C33.8778 57.3194 30.6434 62.7101 24.5981 68.292H16.0115C22.2108 62.5189 25.6377 56.9371 26.6003 51.2023C27.5245 45.6205 27.6015 39.8857 27.5245 34.2274C27.486 29.5631 28.2561 26.084 30.4893 23.5225C32.6071 21.1521 35.4565 20.1963 39.4995 20.9609C43.9661 21.802 48.0861 23.9813 51.436 27.5368C54.5934 30.863 56.3261 34.5332 56.5187 38.5094C56.6727 42.3708 55.2865 45.6205 52.5912 48.2202C49.8958 50.8965 46.1608 52.0817 41.6558 51.814Z" fill="white"/>
<path fill-rule="evenodd" clip-rule="evenodd" d="M8.61855 129.119C16.3195 127.513 24.0205 125.946 31.7215 124.302C39.4225 122.658 47.1235 121.014 54.8244 119.331C61.4858 109.621 63.6806 101.095 63.6421 92.8368C63.6421 84.6552 61.2933 76.55 54.2084 68.3302H8.73406C17.3977 78.1558 20.1315 87.7902 20.401 97.4628C20.7091 107.136 18.6298 117.19 8.61855 129.119Z" fill="#A6CE38"/>
<path d="M41.6558 84.8463C39.9615 84.961 38.2288 85.458 36.4576 86.3756C36.6886 89.0901 36.8426 91.8428 36.9582 94.5572C37.6898 93.7926 38.4214 93.2956 39.1529 93.0662C39.8845 92.7986 40.9242 92.6456 42.2333 92.4927C44.2741 92.3015 45.8528 92.7603 46.9694 93.9455C48.0861 95.0925 48.6637 96.5835 48.6251 98.3804C48.5866 100.292 47.9321 102.012 46.6999 103.542C45.4292 105.147 43.812 106.065 41.8483 106.371C40.1541 106.638 38.7679 106.294 37.6127 105.415C36.4576 104.497 35.803 103.159 35.649 101.401C35.572 95.8953 35.726 90.3135 34.8019 84.9228C33.8778 79.3409 30.6434 73.9503 24.5981 68.3684H16.0115C22.2108 74.1414 25.6377 79.7233 26.6003 85.458C27.5245 91.0399 27.6015 96.7747 27.5245 102.433C27.486 107.097 28.2561 110.576 30.4893 113.138C32.6071 115.508 35.4565 116.464 39.4995 115.699C43.9661 114.858 48.0861 112.679 51.436 109.124C54.5934 105.797 56.3261 102.127 56.5187 98.151C56.6727 94.2896 55.2865 91.0399 52.5912 88.4401C49.8958 85.7257 46.1608 84.5405 41.6558 84.8463Z" fill="white"/>
<path fill-rule="evenodd" clip-rule="evenodd" d="M174.613 39.3505L175.768 35.4126H178.156V30.2895L182.507 27.6515V35.3744H188.591V39.6181H182.507V50.9347C182.507 51.7758 182.545 52.6551 182.622 53.5345C182.699 54.0697 182.815 54.6814 183.084 55.1784C183.277 55.5225 183.546 55.7902 183.893 55.9813C184.393 56.2107 185.048 56.2872 185.626 56.2872C185.934 56.2872 186.242 56.2489 186.55 56.2107C186.973 56.1725 187.358 56.096 187.782 56.0195L188.822 55.8284V60.1103L188.167 60.2633C187.666 60.378 187.204 60.4927 186.704 60.5309C186.28 60.5691 185.895 60.6074 185.472 60.6074C184.239 60.6074 182.969 60.4544 181.852 59.9574C180.851 59.4986 180.081 58.8105 179.503 57.8929C178.926 56.9371 178.579 55.8284 178.425 54.7197C178.194 53.3815 178.156 52.0052 178.156 50.6289V39.6563H174.806C175.075 40.0769 175.345 40.4974 175.576 40.9562L175.961 41.6826L157.71 52.3875C158.133 53.0757 158.672 53.7256 159.288 54.2609C160.058 54.9491 160.944 55.4843 161.907 55.8666C162.946 56.2489 163.986 56.4019 165.064 56.4019C166.027 56.4019 166.989 56.2489 167.913 55.9813C168.915 55.6755 169.839 55.2549 170.724 54.7197C171.802 54.1079 172.804 53.3815 173.766 52.6169L175.191 51.5082V57.09L174.844 57.3577C173.381 58.4282 171.802 59.3075 170.147 59.9574C168.529 60.5309 166.835 60.8367 165.103 60.8367C163.293 60.8367 161.522 60.5309 159.827 59.8427C158.249 59.1928 156.824 58.2752 155.63 57.09C154.437 55.9048 153.513 54.5285 152.858 52.961C152.203 51.317 151.895 49.5966 151.857 47.8379C151.857 46.0793 152.165 44.3206 152.858 42.7149C153.513 41.1474 154.437 39.771 155.63 38.6241C156.824 37.4389 158.249 36.5213 159.827 35.9096C161.483 35.2214 163.254 34.9538 165.026 34.9156C167.22 34.9156 169.377 35.3744 171.302 36.4448C172.649 37.2095 173.728 38.2035 174.613 39.3505ZM214.774 50.0554V60.1868L210.423 60.7221V26.1605L214.774 25.6252V45.544L223.977 34.6097L227.673 36.7889L218.547 47.7232L228.944 58.4281L225.594 61.2191L214.774 50.0554ZM78.3509 49.7495V60.1486L73.8074 61.0661V26.734H80.0452C81.7394 26.734 83.3951 26.9634 84.9738 27.5368C86.3985 28.0721 87.7076 28.8367 88.7858 29.9072C89.8639 30.9395 90.6725 32.1629 91.2116 33.5775C91.7892 35.0685 92.0587 36.636 92.0587 38.2417C92.0587 39.8475 91.7892 41.415 91.2116 42.906C90.6725 44.2824 89.8639 45.544 88.7858 46.5763C87.7076 47.6468 86.3985 48.4114 84.9738 48.9467C83.3951 49.5201 81.7009 49.7495 80.0452 49.7495H78.3509ZM97.2954 52.4257C97.7189 53.1139 98.258 53.7639 98.8741 54.2991C99.6442 54.9873 100.53 55.5225 101.492 55.9048C102.494 56.2872 103.572 56.4401 104.65 56.4401C105.612 56.4401 106.575 56.2872 107.499 56.0195C108.5 55.7137 109.424 55.2931 110.31 54.7579C111.388 54.1462 112.389 53.4198 113.352 52.6551L114.738 51.5464V57.1283L114.392 57.3959C112.928 58.4664 111.35 59.3457 109.694 59.9957C108.077 60.5691 106.383 60.875 104.65 60.875C102.84 60.875 101.069 60.5691 99.3746 59.881C97.7959 59.231 96.3713 58.3135 95.1776 57.1283C93.9839 55.9431 93.0598 54.5667 92.4052 52.9992C91.7507 51.3553 91.4426 49.6348 91.4041 47.8762C91.4041 46.1175 91.7122 44.3588 92.4052 42.7531C93.0598 41.1856 93.9839 39.8092 95.1776 38.6623C96.3713 37.4771 97.7959 36.5595 99.3746 35.9478C101.03 35.2597 102.802 34.992 104.573 34.9538C106.768 34.9538 108.924 35.4126 110.849 36.4831C112.697 37.5536 114.084 39.0828 115.085 40.9944L115.47 41.7208L97.2954 52.4257ZM120.976 38.0888C121.592 37.3242 122.324 36.636 123.171 36.1008C124.711 35.0685 126.482 34.5715 128.33 34.5715H130.217L128.523 39.2358L127.945 39.274C125.712 39.3505 123.941 40.1533 122.747 42.0649C121.284 44.4353 121.014 47.9526 121.014 50.6671V60.1868L116.663 60.7221V35.5273L120.976 34.992V38.0888ZM150.702 57.8929C149.316 58.8487 147.814 59.6133 146.235 60.1103C144.695 60.6074 143.116 60.875 141.538 60.875C139.766 60.875 137.995 60.5691 136.339 59.881C134.761 59.231 133.336 58.3135 132.142 57.1283C130.949 55.9431 129.986 54.5667 129.37 52.9992C128.677 51.3553 128.369 49.6348 128.369 47.8762C128.369 46.1175 128.677 44.3588 129.37 42.7531C130.025 41.1856 130.949 39.8092 132.142 38.6623C133.336 37.4771 134.761 36.5595 136.339 35.9478C137.995 35.2597 139.766 34.992 141.538 34.9538C143.155 34.9538 144.772 35.145 146.312 35.6037C147.852 36.0625 149.277 36.8272 150.586 37.7447L151.356 38.28L148.545 41.6826L147.891 41.2238C147.313 40.8415 146.736 40.4592 146.12 40.1916C145.465 39.8857 144.772 39.6181 144.04 39.4652C143.232 39.274 142.385 39.1975 141.576 39.1975C140.382 39.1975 139.227 39.4269 138.149 39.8857C137.109 40.3445 136.147 40.9562 135.338 41.7591C134.53 42.5619 133.914 43.4795 133.451 44.55C132.989 45.6205 132.758 46.7674 132.758 47.9144C132.758 49.0996 132.989 50.2083 133.451 51.2788C133.914 52.3111 134.53 53.2669 135.338 54.0697C136.147 54.8726 137.071 55.4843 138.149 55.9431C139.227 56.4019 140.382 56.6312 141.576 56.6312C142.616 56.6312 143.694 56.4401 144.695 56.096C145.889 55.7137 147.005 55.102 148.083 54.4138L148.738 53.955L151.549 57.3959L150.702 57.8929ZM203.184 59.0399C202.645 59.4222 202.067 59.7663 201.451 60.0721C200.258 60.6074 198.948 60.875 197.639 60.875C196.369 60.875 195.136 60.6456 193.943 60.1486C192.826 59.6516 191.825 59.0016 190.978 58.1223C190.131 57.243 189.438 56.2489 188.976 55.1402C188.475 53.9933 188.244 52.7698 188.244 51.4699C188.244 50.2083 188.475 48.9849 188.976 47.8379C189.476 46.7292 190.131 45.7352 190.978 44.8558C191.825 43.9765 192.826 43.3266 193.981 42.8296C195.136 42.3325 196.369 42.1032 197.639 42.1032C198.91 42.1032 200.181 42.3708 201.374 42.8678C201.952 43.1354 202.529 43.4413 203.03 43.7854V42.7531C203.03 41.7591 202.876 40.5739 202.106 39.8475C201.297 39.0828 199.949 38.9299 198.91 38.9299C197.832 38.9299 196.754 39.0828 195.752 39.3887C194.482 39.7328 193.211 40.1916 191.979 40.6886L190.208 41.415L191.979 36.1772L192.403 36.0243C193.558 35.642 194.713 35.3361 195.906 35.1067C196.985 34.9156 198.101 34.8009 199.218 34.8009C200.758 34.8009 202.414 34.992 203.8 35.6802C205.032 36.2919 205.995 37.2477 206.572 38.5094C207.227 39.8857 207.419 41.4532 207.419 42.9443V60.1486L203.222 60.7985V59.0399H203.184ZM242.151 59.0399C241.612 59.4222 241.034 59.7663 240.418 60.0721C239.224 60.6074 237.915 60.875 236.606 60.875C235.336 60.875 234.103 60.6456 232.91 60.1486C231.793 59.6516 230.792 59.0016 229.945 58.1223C229.098 57.243 228.405 56.2489 227.943 55.1402C227.442 53.9933 227.211 52.7698 227.211 51.4699C227.211 50.2083 227.442 48.9849 227.943 47.8379C228.443 46.7292 229.098 45.7352 229.945 44.8558C230.792 43.9765 231.793 43.3266 232.948 42.8296C234.103 42.3325 235.336 42.1032 236.606 42.1032C237.877 42.1032 239.147 42.3708 240.341 42.8678C240.919 43.1354 241.496 43.4413 241.997 43.7854V42.7531C241.997 41.7591 241.843 40.5739 241.073 39.8475C240.264 39.0828 238.916 38.9299 237.877 38.9299C236.799 38.9299 235.721 39.0828 234.719 39.3887C233.449 39.7328 232.178 40.1916 230.946 40.6886L229.175 41.415L230.946 36.1772L231.369 36.0243C232.525 35.642 233.68 35.3361 234.873 35.1067C235.952 34.9156 237.068 34.8009 238.185 34.8009C239.725 34.8009 241.381 34.992 242.767 35.6802C243.999 36.2919 244.962 37.2477 245.539 38.5094C246.194 39.8857 246.386 41.4532 246.386 42.9443V60.1486L242.189 60.7985V59.0399H242.151ZM253.664 37.5536C254.28 36.9419 254.973 36.4066 255.743 35.9861C257.168 35.1832 258.746 34.8391 260.402 34.8391C262.058 34.8391 263.714 35.145 265.138 35.9861C266.524 36.7889 267.603 37.9359 268.296 39.3505C269.104 40.9944 269.374 42.8296 269.374 44.6265V60.225L265.061 60.7603V45.9263C265.061 44.1294 264.83 41.912 263.675 40.421C262.712 39.1593 261.249 38.7388 259.709 38.7388C258.901 38.7388 258.169 38.8917 257.437 39.1975C256.706 39.5034 256.051 39.9622 255.474 40.4974C254.896 41.0709 254.434 41.7208 254.126 42.4855C253.779 43.2883 253.625 44.1294 253.625 44.9705V60.1868L249.274 60.7221V35.5273L253.625 34.992V37.5536H253.664ZM78.3509 31.1689V45.3529H80.0067C81.4313 45.3529 82.856 45.1235 84.1267 44.4735C85.2048 43.9383 86.0134 43.1354 86.591 42.1032C87.2456 40.918 87.4766 39.5799 87.4766 38.2417C87.4766 36.9036 87.2456 35.5655 86.591 34.4186C86.0134 33.3863 85.2048 32.5834 84.1267 32.0482C82.856 31.3982 81.3928 31.1689 80.0067 31.1689H78.3509ZM95.9477 48.4114L109.155 40.5739C108.731 40.2298 108.269 39.9622 107.769 39.7328C106.806 39.3505 105.728 39.1975 104.688 39.1975C103.533 39.1975 102.378 39.4269 101.3 39.8475C100.26 40.268 99.3361 40.8797 98.5275 41.6444C97.7189 42.409 97.1028 43.3266 96.6408 44.3588C96.1787 45.4293 95.9477 46.6145 95.9477 47.7997C95.9477 48.0291 95.9477 48.2202 95.9477 48.4114ZM156.4 48.4114L169.608 40.5739C169.184 40.2298 168.722 39.9622 168.221 39.7328C167.259 39.3505 166.181 39.1975 165.141 39.1975C163.986 39.1975 162.831 39.4269 161.753 39.8475C160.713 40.268 159.789 40.8797 158.98 41.6444C158.172 42.409 157.556 43.3266 157.094 44.3588C156.631 45.4293 156.4 46.6145 156.4 47.7997C156.4 48.0291 156.4 48.2202 156.4 48.4114ZM192.711 51.5082C192.711 52.1964 192.826 52.8845 193.096 53.4962C193.327 54.108 193.712 54.6432 194.174 55.1402C194.636 55.6372 195.213 55.9813 195.829 56.2489C196.523 56.5166 197.293 56.6312 198.024 56.6695C198.987 56.6695 199.911 56.4783 200.758 56.0195C201.528 55.599 202.106 54.9873 202.529 54.2609C202.991 53.4198 203.184 52.5022 203.184 51.5464C203.184 50.5906 202.991 49.6731 202.529 48.8702C202.106 48.1056 201.528 47.5321 200.758 47.1115C199.911 46.6527 199.025 46.4616 198.063 46.4616C197.293 46.4616 196.523 46.5763 195.829 46.8821C195.213 47.1498 194.636 47.4938 194.174 47.9909C193.712 48.4496 193.365 48.9849 193.096 49.5966C192.826 50.1318 192.711 50.82 192.711 51.5082ZM231.639 51.5082C231.639 52.1964 231.755 52.8845 232.024 53.4962C232.294 54.108 232.64 54.6432 233.102 55.1402C233.564 55.6372 234.142 55.9813 234.758 56.2489C235.451 56.5166 236.221 56.6312 236.953 56.6695C237.915 56.6695 238.839 56.4783 239.687 56.0195C240.457 55.599 241.034 54.9873 241.458 54.2609C241.92 53.4198 242.112 52.5022 242.112 51.5464C242.112 50.5906 241.92 49.6731 241.458 48.8702C241.034 48.1056 240.457 47.5321 239.687 47.1115C238.839 46.6527 237.915 46.4616 236.991 46.4616C236.221 46.4616 235.451 46.5763 234.758 46.8821C234.142 47.1498 233.564 47.4938 233.102 47.9909C232.64 48.4496 232.294 48.9849 232.024 49.5966C231.793 50.1318 231.639 50.82 231.639 51.5082Z" fill="#A6CE38"/>
<path fill-rule="evenodd" clip-rule="evenodd" d="M89.0168 84.8081C90.1335 85.4581 91.0961 86.3374 91.8277 87.4461C92.8673 89.0136 93.2909 90.8105 93.2909 92.6839C93.2909 93.9838 93.0598 95.2454 92.5978 96.4306C92.1357 97.5775 91.4426 98.6098 90.5185 99.4891C89.5559 100.407 88.3622 101.057 87.1301 101.477C85.6669 101.974 84.0882 102.165 82.548 102.165H73.8459V68.5978H80.7768C83.7031 68.5978 87.0531 69.0184 89.4404 70.8535C91.6352 72.5357 92.4823 74.9443 92.4823 77.6588C92.4823 79.341 92.1357 80.9849 91.2501 82.4377C90.634 83.3935 89.9024 84.1964 89.0168 84.8081ZM108.847 100.942C108.308 101.324 107.73 101.668 107.114 101.974C105.92 102.509 104.611 102.777 103.302 102.777C102.031 102.777 100.799 102.548 99.6057 102.051C98.489 101.554 97.4879 100.904 96.6408 100.024C95.7937 99.1833 95.1006 98.1893 94.6385 97.0423C94.138 95.8953 93.9069 94.6719 93.9069 93.4103C93.9069 92.1486 94.138 90.9252 94.6385 89.7782C95.1006 88.6695 95.7937 87.6755 96.6408 86.7962C97.4879 85.9168 98.489 85.2669 99.6442 84.7699C100.799 84.2729 102.031 84.0435 103.302 84.0435C104.573 84.0435 105.843 84.3111 107.037 84.8081C107.615 85.0757 108.192 85.3816 108.693 85.7257V84.6552C108.693 83.6612 108.539 82.476 107.769 81.7496C106.96 80.9849 105.612 80.832 104.573 80.832C103.495 80.832 102.417 80.9849 101.415 81.2908C100.145 81.6349 98.8741 82.0937 97.6419 82.5907L95.8707 83.3171L97.6419 78.0793L98.0655 77.9264C99.2206 77.5441 100.376 77.2382 101.608 77.0088C102.686 76.8177 103.803 76.703 104.919 76.703C106.46 76.703 108.115 76.8941 109.501 77.5823C110.734 78.194 111.696 79.1498 112.274 80.4115C112.928 81.7878 113.121 83.3553 113.121 84.8463V102.051L108.924 102.701V100.942H108.847ZM120.321 79.4557C120.937 78.8439 121.63 78.3087 122.401 77.8881C123.825 77.0853 125.404 76.7412 127.06 76.7412C128.715 76.7412 130.371 77.047 131.796 77.8881C133.22 78.691 134.26 79.838 134.953 81.2526C135.762 82.8965 136.031 84.7316 136.031 86.5285V102.127L131.719 102.662V87.8284C131.719 86.0315 131.488 83.8141 130.333 82.323C129.37 81.0614 127.907 80.6408 126.367 80.6408C125.558 80.6408 124.826 80.7938 124.095 81.0996C123.363 81.4055 122.709 81.8643 122.131 82.3995C121.553 82.973 121.091 83.6229 120.783 84.3876C120.437 85.1904 120.283 86.0315 120.283 86.8726V102.089L115.932 102.624V77.3911L120.283 76.8559V79.4557H120.321ZM159.789 99.1451C158.903 100.024 157.902 100.789 156.785 101.362C155.014 102.318 153.05 102.739 151.048 102.777C149.239 102.777 147.506 102.471 145.85 101.783C144.271 101.133 142.847 100.216 141.653 99.0304C140.459 97.8452 139.497 96.4688 138.881 94.9013C138.188 93.2573 137.88 91.5369 137.88 89.7782C137.88 88.0196 138.188 86.2992 138.881 84.6552C139.535 83.0877 140.459 81.7113 141.653 80.5261C142.847 79.341 144.271 78.4234 145.85 77.8117C147.506 77.1235 149.277 76.8177 151.048 76.8177C153.089 76.8177 155.091 77.2764 156.901 78.2322C157.979 78.8057 158.942 79.5704 159.827 80.4115V68.1008L164.14 67.5656V102.127L159.827 102.662V99.1451H159.789ZM182.699 100.101C182.083 100.713 181.39 101.248 180.62 101.668C179.195 102.471 177.617 102.815 175.961 102.815C174.305 102.815 172.649 102.509 171.186 101.668C169.8 100.865 168.722 99.7185 168.029 98.3039C167.22 96.6982 166.951 94.8249 166.912 93.028V77.4294L171.263 76.8941V91.7281C171.263 93.525 171.494 95.7424 172.611 97.2335C173.574 98.4951 174.998 98.9157 176.538 98.9157C177.347 98.9157 178.079 98.7627 178.81 98.4569C179.542 98.151 180.196 97.6922 180.774 97.157C181.352 96.5835 181.814 95.9336 182.16 95.1689C182.507 94.3661 182.661 93.525 182.661 92.6839V77.4676L187.012 76.9324V102.165L182.661 102.701V100.101H182.699ZM194.328 79.4557C194.944 78.8439 195.637 78.3087 196.407 77.8881C197.832 77.0853 199.41 76.7412 201.066 76.7412C202.722 76.7412 204.378 77.047 205.802 77.8881C207.188 78.691 208.228 79.838 208.96 81.2526C209.768 82.8965 210.038 84.7316 210.038 86.5285V102.127L205.725 102.662V87.8284C205.725 86.0315 205.494 83.8141 204.339 82.323C203.376 81.0614 201.913 80.6408 200.373 80.6408C199.564 80.6408 198.833 80.7938 198.101 81.0996C197.37 81.4055 196.715 81.8643 196.137 82.3995C195.56 82.973 195.098 83.6229 194.79 84.3876C194.443 85.1904 194.289 86.0315 194.289 86.8726V102.089L189.938 102.624V77.3911L194.289 76.8559V79.4557H194.328ZM228.828 93.3338C229.483 93.7161 230.06 94.1749 230.599 94.7102C231.446 95.5513 232.14 96.5453 232.64 97.6922C233.102 98.801 233.333 99.9861 233.333 101.21C233.333 102.548 233.064 103.848 232.486 105.033C231.909 106.256 231.1 107.288 230.099 108.168C229.021 109.085 227.789 109.773 226.479 110.232C225.016 110.768 223.437 110.997 221.897 110.997C220.396 110.997 218.932 110.768 217.546 110.309C216.16 109.85 214.889 109.162 213.734 108.244C212.541 107.288 211.539 106.18 210.692 104.918L210.192 104.192L214.042 101.707L214.504 102.433C215.351 103.733 216.43 104.88 217.777 105.644C219.048 106.371 220.434 106.715 221.897 106.715C222.86 106.715 223.784 106.562 224.708 106.256C225.517 105.989 226.287 105.568 226.941 105.033C227.557 104.536 228.058 103.962 228.405 103.274C228.751 102.624 228.905 101.936 228.905 101.21C228.905 100.407 228.751 99.6803 228.366 98.9539C228.02 98.2275 227.519 97.6158 226.903 97.0805C226.248 96.5071 225.478 96.0865 224.67 95.7807C223.784 95.4748 222.821 95.3219 221.897 95.3219C221.012 95.3219 220.126 95.4366 219.279 95.666C218.278 95.9336 217.277 96.2777 216.353 96.7364L214.427 97.6158L216.045 93.372C214.851 92.6074 213.85 91.6134 213.118 90.39C212.271 89.0136 211.886 87.5226 211.847 85.9168C211.847 84.6552 212.117 83.4318 212.656 82.2848C213.195 81.1761 213.927 80.1821 214.889 79.3792C215.852 78.5381 216.969 77.8881 218.201 77.4676C219.51 77.0088 220.896 76.7794 222.282 76.7794C222.706 76.7794 223.129 76.7794 223.553 76.8177C224.131 76.8559 224.67 76.8941 225.247 76.9706C225.363 76.9706 225.478 77.0088 225.594 77.0088H225.632C225.786 77.0088 225.902 77.0088 226.056 77.0088C227.134 77.0088 228.174 76.8941 229.213 76.6647C230.484 76.4353 231.716 76.1295 232.987 75.8236L234.527 75.4031L233.41 78.691C233.295 79.0351 233.179 79.341 232.987 79.6086C232.756 79.9527 232.486 80.1821 232.14 80.335C231.832 80.4879 231.485 80.5261 231.138 80.5644C231.447 80.9085 231.716 81.2908 231.986 81.7113C232.756 82.973 233.102 84.4258 233.102 85.8786C233.102 87.0256 232.91 88.1343 232.448 89.2048C231.986 90.2753 231.369 91.1928 230.522 91.9957C229.945 92.5309 229.406 92.9515 228.828 93.3338ZM78.351 83.0112H81.7009C82.856 83.0112 84.1652 82.8583 85.2433 82.3613C86.0519 81.979 86.745 81.4437 87.2456 80.6408C87.7462 79.7997 87.9387 78.8439 87.9387 77.8881C87.9387 76.4736 87.5536 75.1737 86.437 74.2561C85.1663 73.1856 83.2411 72.9562 81.6624 72.9562H78.428V83.0112H78.351ZM78.351 97.8452H81.9704C83.6261 97.8452 85.7054 97.6158 87.0531 96.5835C88.2467 95.6659 88.5933 94.2131 88.5933 92.7603C88.5933 91.7281 88.4007 90.6958 87.9002 89.8165C87.4381 89.0136 86.7835 88.4019 85.9364 87.9813C84.8968 87.4843 83.7416 87.2932 82.5865 87.2932H78.3124V97.8452H78.351ZM98.335 93.4103C98.335 94.0984 98.4505 94.7866 98.7201 95.4366C98.9896 96.0483 99.3361 96.5835 99.7982 97.0805C100.26 97.5775 100.838 97.9216 101.454 98.1893C102.147 98.4951 102.917 98.6098 103.649 98.6098C104.611 98.6098 105.535 98.4186 106.383 97.9599C107.153 97.5393 107.73 96.9276 108.154 96.2012C108.616 95.3601 108.808 94.4425 108.808 93.4867C108.808 92.5309 108.616 91.6134 108.154 90.8105C107.73 90.0459 107.153 89.4724 106.383 89.0518C105.535 88.5931 104.65 88.4019 103.687 88.4019C102.917 88.4019 102.147 88.5166 101.454 88.8225C100.838 89.0901 100.26 89.4342 99.7982 89.9312C99.3361 90.39 98.9896 90.9252 98.7201 91.5369C98.4505 92.0339 98.335 92.6839 98.335 93.4103ZM142.231 89.7782C142.231 90.9634 142.462 92.1104 142.924 93.1809C143.386 94.2131 144.002 95.1689 144.81 95.9336C145.619 96.7364 146.582 97.3482 147.621 97.8069C148.699 98.2657 149.855 98.4951 151.048 98.4951C152.242 98.4951 153.359 98.2657 154.475 97.8069C155.515 97.3482 156.439 96.7364 157.248 95.9336C158.056 95.1307 158.672 94.2131 159.134 93.1426C159.596 92.0722 159.827 90.9252 159.827 89.74C159.827 88.5548 159.596 87.4079 159.134 86.3374C158.672 85.3051 158.056 84.3876 157.248 83.5847C156.439 82.7818 155.515 82.1701 154.475 81.7113C153.397 81.2525 152.242 81.0232 151.048 81.0232C149.855 81.0232 148.699 81.2525 147.621 81.7113C146.582 82.1701 145.619 82.7818 144.81 83.5847C144.002 84.3876 143.386 85.3051 142.924 86.3756C142.462 87.4461 142.269 88.5931 142.231 89.7782ZM216.237 85.9551C216.237 86.6432 216.391 87.2932 216.661 87.9431C216.969 88.5931 217.392 89.1283 217.893 89.5871C218.47 90.0841 219.125 90.4664 219.857 90.734C220.665 91.0399 221.551 91.1546 222.398 91.1546C223.245 91.1546 224.131 91.0399 224.939 90.734C225.632 90.4664 226.325 90.0841 226.864 89.5871C227.403 89.1283 227.789 88.5548 228.097 87.9431C228.366 87.2932 228.52 86.6432 228.52 85.9551C228.52 85.3051 228.366 84.6552 228.058 84.0817C227.75 83.47 227.326 82.9348 226.787 82.5142C226.21 82.0172 225.555 81.6731 224.824 81.4055C224.054 81.1379 223.206 81.0232 222.359 80.9849C221.512 80.9849 220.704 81.0996 219.895 81.4055C219.163 81.6349 218.509 82.0172 217.931 82.476C217.392 82.9347 216.969 83.4318 216.661 84.0435C216.391 84.6552 216.237 85.3051 216.237 85.9551Z" fill="#00B3F0"/>
<path d="M241.843 81.9789C241.843 82.5907 241.65 83.0877 241.227 83.5082C240.803 83.9288 240.303 84.1582 239.687 84.1582C239.07 84.1582 238.57 83.9288 238.146 83.5082C237.723 83.0877 237.53 82.5524 237.53 81.9789C237.53 81.3672 237.723 80.8702 238.146 80.4497C238.57 80.0291 239.07 79.7997 239.687 79.7997C240.303 79.7997 240.803 80.0291 241.227 80.4497C241.65 80.8702 241.843 81.3672 241.843 81.9789ZM249.197 77.9646C249.197 77.9646 249.005 77.9264 248.658 77.8117C248.312 77.697 248.004 77.6587 247.773 77.6587C247.234 77.6587 246.81 77.8117 246.463 78.1558C246.155 78.4616 245.963 78.9204 245.963 79.4556C245.963 80.0291 246.155 80.4497 246.502 80.7938C246.848 81.0996 247.311 81.2908 247.888 81.2908C248.158 81.2908 248.466 81.2143 248.812 81.0996C249.159 80.9849 249.313 80.9084 249.274 80.9084C249.39 80.9084 249.505 81.2908 249.659 82.0554C249.813 82.7436 249.852 83.2406 249.852 83.47C249.852 83.6994 249.467 83.8905 248.697 84.0435C248.119 84.1582 247.619 84.2346 247.272 84.2346C245.924 84.2346 244.808 83.7758 243.961 82.8965C243.075 81.9789 242.651 80.8702 242.651 79.5321C242.651 78.194 243.075 77.0853 243.961 76.1677C244.846 75.2501 245.963 74.7914 247.272 74.7914C248.196 74.7914 248.966 74.9825 249.659 75.3648C249.813 75.4413 249.89 75.5178 249.89 75.5942C249.89 75.6707 249.813 76.0148 249.621 76.6647C249.467 77.2764 249.351 77.6587 249.274 77.7734C249.274 77.8881 249.236 77.9646 249.197 77.9646ZM259.748 79.4939C259.748 80.8702 259.324 82.0172 258.477 82.8583C257.63 83.7376 256.513 84.1582 255.127 84.1582C253.779 84.1582 252.663 83.7376 251.816 82.8583C250.93 82.0172 250.506 80.9084 250.506 79.5703C250.506 78.1558 250.93 77.0088 251.739 76.1295C252.586 75.2501 253.702 74.7914 255.127 74.7914C256.513 74.7914 257.63 75.2119 258.477 76.0912C259.324 76.9706 259.748 78.1175 259.748 79.4939ZM256.744 79.4939C256.744 78.9969 256.59 78.5763 256.282 78.2322C255.974 77.8499 255.589 77.697 255.127 77.697C254.626 77.697 254.241 77.8881 253.933 78.2705C253.625 78.6145 253.51 79.0351 253.51 79.5321C253.51 80.0291 253.664 80.4497 253.933 80.7938C254.241 81.1761 254.626 81.3672 255.127 81.3672C255.589 81.3672 256.013 81.1761 256.321 80.7938C256.629 80.4114 256.744 79.9909 256.744 79.4939ZM275.573 83.6229C275.573 83.8523 275.496 83.967 275.304 83.967C275.111 84.0052 274.688 84.0052 273.956 84.0052C273.224 84.0052 272.724 84.0052 272.57 83.967C272.377 83.9288 272.3 83.7758 272.3 83.5082C272.3 83.2406 272.3 82.82 272.339 82.2466C272.339 81.6731 272.377 81.2525 272.377 80.9849C272.377 79.9144 272.377 79.1498 272.339 78.691C272.3 77.9646 271.954 77.6205 271.299 77.6205C271.03 77.6205 270.722 77.7352 270.452 77.9646C270.182 78.194 270.028 78.4616 269.99 78.7675C269.951 79.0351 269.951 79.7615 269.951 81.0231C269.951 81.329 269.951 81.7495 269.99 82.323C270.028 82.8965 270.028 83.3553 270.028 83.6229C270.028 83.8141 269.951 83.9288 269.759 83.9288H266.987C266.794 83.9288 266.717 83.8141 266.717 83.5465C266.717 83.2788 266.717 82.82 266.756 82.2466C266.794 81.6731 266.794 81.2525 266.794 80.9467C266.794 80.7173 266.794 80.3732 266.794 79.9144C266.794 79.4556 266.794 79.1116 266.794 78.8822C266.794 78.0028 266.447 77.5823 265.793 77.5823C265.523 77.5823 265.215 77.697 264.907 77.8881C264.561 78.1175 264.407 78.3469 264.407 78.6145C264.407 79.188 264.407 79.9909 264.407 81.0996C264.407 82.2083 264.407 83.0494 264.407 83.5847C264.407 83.7376 264.407 83.8141 264.368 83.8523C264.33 83.8905 264.253 83.9288 264.099 83.9288C263.829 83.967 263.406 83.967 262.79 83.967C262.404 83.967 261.981 83.967 261.48 83.9288C261.326 83.9288 261.249 83.8905 261.211 83.8523C261.172 83.8141 261.172 83.7376 261.172 83.5847C261.172 83.0877 261.172 82.3613 261.172 81.4055C261.172 80.4497 261.172 79.7233 261.172 79.2262C261.172 78.2322 261.095 77.0853 260.941 75.8618C260.941 75.7854 260.941 75.7472 260.941 75.7089C260.941 75.5942 260.98 75.5178 261.057 75.5178C261.172 75.4795 261.442 75.4031 261.827 75.3648C262.289 75.3266 262.558 75.2884 262.635 75.2884C262.712 75.2884 262.944 75.2119 263.367 75.0972C263.675 75.0207 263.906 74.9825 264.099 74.9825C264.214 74.9825 264.291 75.2119 264.291 75.6325C264.291 76.053 264.33 76.2824 264.368 76.2824C264.445 76.2442 264.484 76.2059 264.561 76.1677C265.1 75.7471 265.562 75.4413 265.87 75.2884C266.332 75.059 266.871 74.9443 267.41 74.9443C267.988 74.9443 268.488 75.059 268.912 75.3266C269.412 75.5942 269.72 76.0148 269.874 76.5118C270.221 76.0912 270.645 75.7089 271.222 75.4031C271.8 75.0972 272.339 74.9443 272.878 74.9443C273.686 74.9443 274.341 75.1354 274.842 75.5178C275.419 75.9383 275.689 76.55 275.689 77.3147C275.689 77.6587 275.689 78.1175 275.65 78.7675C275.612 79.4174 275.612 79.9144 275.612 80.2203C275.612 80.6026 275.612 81.1761 275.65 81.9407C275.535 82.6671 275.573 83.2406 275.573 83.6229Z" fill="#6C6E70"/>
</svg>
