<svg width="620" height="620" viewBox="0 0 620 620"  xmlns="http://www.w3.org/2000/svg">
<path d="M620 474.176H0V474.486H620V474.176Z" fill="#EBEBEB"/>
<path d="M293.88 418.872H54.4484C52.5727 418.869 50.7749 418.121 49.4498 416.794C48.1246 415.466 47.3804 413.667 47.3804 411.792V75.2184C47.3967 73.3535 48.1482 71.5703 49.4716 70.2562C50.795 68.9421 52.5834 68.2032 54.4484 68.2H293.88C295.758 68.2 297.559 68.946 298.887 70.2738C300.214 71.6016 300.96 73.4026 300.96 75.2804V411.792C300.96 413.669 300.214 415.47 298.887 416.798C297.559 418.126 295.758 418.872 293.88 418.872ZM54.4484 68.448C52.6549 68.4513 50.936 69.1661 49.669 70.4354C48.402 71.7047 47.6904 73.4249 47.6904 75.2184V411.792C47.6904 413.585 48.402 415.305 49.669 416.575C50.936 417.844 52.6549 418.559 54.4484 418.562H293.88C295.675 418.559 297.395 417.844 298.664 416.575C299.933 415.306 300.647 413.586 300.65 411.792V75.2184C300.647 73.4238 299.933 71.7036 298.664 70.4346C297.395 69.1657 295.675 68.4513 293.88 68.448H54.4484Z" fill="#EBEBEB"/>
<path d="M562.105 418.872H322.66C320.784 418.869 318.985 418.122 317.658 416.795C316.33 415.467 315.583 413.668 315.58 411.792V75.2184C315.6 73.3524 316.354 71.5692 317.679 70.2554C319.005 68.9417 320.794 68.2032 322.66 68.2H562.105C563.967 68.2065 565.753 68.9468 567.073 70.2606C568.394 71.5743 569.144 73.3556 569.16 75.2184V411.792C569.16 413.665 568.418 415.462 567.095 416.789C565.773 418.117 563.978 418.865 562.105 418.872ZM322.66 68.448C320.866 68.4513 319.146 69.1657 317.877 70.4346C316.608 71.7036 315.893 73.4238 315.89 75.2184V411.792C315.893 413.586 316.608 415.306 317.877 416.575C319.146 417.844 320.866 418.559 322.66 418.562H562.105C563.899 418.559 565.619 417.844 566.888 416.575C568.157 415.306 568.872 413.586 568.875 411.792V75.2184C568.872 73.4238 568.157 71.7036 566.888 70.4346C565.619 69.1657 563.899 68.4513 562.105 68.448H322.66Z" fill="#EBEBEB"/>
<path d="M557.876 494.128H525.636V494.438H557.876V494.128Z" fill="#EBEBEB"/>
<path d="M441.477 497.5H385.64V497.81H441.477V497.5Z" fill="#EBEBEB"/>
<path d="M524.396 482.62H449.016V482.93H524.396V482.62Z" fill="#EBEBEB"/>
<path d="M88.8956 484.704H65.0504V485.014H88.8956V484.704Z" fill="#EBEBEB"/>
<path d="M168.504 484.704H99.944V485.014H168.504V484.704Z" fill="#EBEBEB"/>
<path d="M302.734 489.936H210.391V490.246H302.734V489.936Z" fill="#EBEBEB"/>
<path d="M345.278 105.896H96.1V284.778H345.278V105.896Z" fill="#FAFAFA"/>
<path d="M162.911 284.778L205.642 105.884H253.208L210.478 284.778H162.911Z" fill="white"/>
<path d="M255.812 284.778L298.542 105.884H315.89L273.16 284.778H255.812Z" fill="white"/>
<path d="M146.494 284.778L189.236 105.884H195.746L153.016 284.778H146.494Z" fill="white"/>
<path d="M357.12 99.7332H84.2208C84.0742 99.7332 83.9291 99.7621 83.7937 99.8182C83.6583 99.8742 83.5353 99.9565 83.4317 100.06C83.328 100.164 83.2458 100.287 83.1898 100.422C83.1337 100.558 83.1048 100.703 83.1048 100.849C83.1048 100.995 83.1337 101.14 83.19 101.274C83.2462 101.409 83.3286 101.531 83.4324 101.634C83.5362 101.737 83.6593 101.818 83.7947 101.872C83.93 101.927 84.0748 101.954 84.2208 101.953H357.12C357.414 101.953 357.696 101.837 357.905 101.63C358.114 101.424 358.233 101.143 358.236 100.849C358.233 100.554 358.114 100.272 357.906 100.064C357.697 99.8551 357.415 99.7364 357.12 99.7332Z" fill="#E0E0E0"/>
<path d="M216.479 285.163H227.106L227.106 105.512H216.479L216.479 285.163Z" fill="#F0F0F0"/>
<path d="M227.106 285.163H228.296L228.296 105.512H227.106L227.106 285.163Z" fill="#E0E0E0"/>
<path d="M94.3764 193.862V196.813L347.002 196.813V193.862L94.3764 193.862Z" fill="#F0F0F0"/>
<path d="M347.002 283.538V104.16H94.3764V283.538V286.44H347.002V283.538ZM97.3276 283.538V107.124H344.088V283.538H97.3276Z" fill="#F0F0F0"/>
<path d="M347.002 286.49H348.477V104.16H347.002V286.49Z" fill="#E0E0E0"/>
<path opacity="0.5" d="M303.044 97.03V394.134H365.329L353.908 97.03H303.044Z" fill="#EBEBEB"/>
<path opacity="0.5" d="M259.817 97.03V394.134H322.102L310.682 97.03H259.817Z" fill="#EBEBEB"/>
<path opacity="0.5" d="M115.841 97.03V394.134H77.5248L84.5556 97.03H115.841Z" fill="#EBEBEB"/>
<path opacity="0.5" d="M142.439 97.03V394.134H104.123L111.141 97.03H142.439Z" fill="#EBEBEB"/>
<path d="M233.343 474.164H260.834V285.361H233.343L233.343 474.164Z" fill="#E6E6E6"/>
<path d="M243.028 474.176H233.343V438.29H253.171L243.028 474.176Z" fill="#F0F0F0"/>
<path d="M524.111 474.164H551.602V285.361H524.111V474.164Z" fill="#E6E6E6"/>
<path d="M233.343 464.38L532.555 464.38V285.374H233.343V464.38Z" fill="#F0F0F0"/>
<path d="M522.871 474.176H532.555V438.29H512.728L522.871 474.176Z" fill="#F0F0F0"/>
<path d="M433.913 300.192V448.272H522.61V300.192H433.913Z" fill="#E6E6E6"/>
<path d="M469.489 305.4H487.035C494.453 305.471 501.63 302.769 507.16 297.823H449.339C454.875 302.775 462.062 305.477 469.489 305.4Z" fill="#F0F0F0"/>
<path d="M338.607 300.192V448.272H427.304V300.192H338.607Z" fill="#E6E6E6"/>
<path d="M373.24 305.4H390.786C398.213 305.477 405.4 302.775 410.936 297.823H353.127C358.654 302.766 365.826 305.468 373.24 305.4Z" fill="#F0F0F0"/>
<path d="M243.3 300.192V448.272H331.998V300.192H243.3Z" fill="#E6E6E6"/>
<path d="M277.971 305.4H295.517C302.944 305.477 310.131 302.775 315.667 297.823H257.821C263.357 302.775 270.544 305.477 277.971 305.4Z" fill="#F0F0F0"/>
<path d="M540.64 251.112H449.512C449.512 251.112 450.343 274.598 476.47 282.348V285.374H513.67V282.348C539.834 274.598 540.64 251.112 540.64 251.112Z" fill="#E6E6E6"/>
<path d="M515.952 102.226H396.75V229.871H515.952V102.226Z" fill="#F0F0F0"/>
<path d="M515.964 229.859H519.907V102.213H515.964V229.859Z" fill="#E0E0E0"/>
<path d="M495.802 113.162H416.913V218.91H495.802V113.162Z" fill="white"/>
<path d="M310 530.174C442.782 530.174 550.424 523.89 550.424 516.138C550.424 508.385 442.782 502.101 310 502.101C177.218 502.101 69.5764 508.385 69.5764 516.138C69.5764 523.89 177.218 530.174 310 530.174Z" fill="#F5F5F5"/>
<path d="M456.134 511.289L446.04 511.128L445.358 487.704L455.452 487.866L456.134 511.289Z" fill="#FF9C82"/>
<path d="M445.693 504.457L456.717 504.63C456.914 504.634 457.105 504.706 457.254 504.835C457.404 504.965 457.503 505.142 457.535 505.337L458.998 514.34C459.033 514.561 459.018 514.788 458.956 515.004C458.893 515.219 458.784 515.418 458.637 515.587C458.489 515.756 458.306 515.891 458.101 515.982C457.896 516.073 457.673 516.117 457.448 516.113C453.468 515.989 447.739 515.666 442.742 515.58C436.902 515.493 441.502 515.728 434.657 515.58C430.516 515.505 429.61 511.302 431.371 510.954C439.357 509.342 439.766 507.557 443.226 505.164C443.954 504.677 444.817 504.429 445.693 504.457Z" fill="#0344FD"/>
<path d="M417.086 208.518C416.218 211.941 415.214 215.053 414.172 218.29C413.131 221.526 411.965 224.651 410.75 227.813C408.276 234.227 405.321 240.445 401.909 246.413C401.487 247.182 401.004 247.926 400.532 248.682L399.813 249.81L399.466 250.381C399.354 250.554 399.144 250.827 398.995 251.05C397.715 252.873 396.188 254.509 394.456 255.911C391.327 258.397 387.772 260.296 383.966 261.516C380.513 262.652 376.945 263.401 373.327 263.748C371.566 263.946 369.805 264.021 368.057 264.046C366.273 264.072 364.489 264.002 362.712 263.835L362.514 256.246C368.384 255.071 374.074 253.133 379.44 250.48C381.728 249.317 383.82 247.802 385.64 245.991C386.353 245.244 386.969 244.411 387.475 243.511L387.674 243.164L387.934 242.668L388.455 241.676C388.79 241.019 389.149 240.436 389.459 239.68C392.122 234.078 394.469 228.332 396.49 222.468C397.556 219.505 398.536 216.504 399.54 213.503C400.545 210.502 401.45 207.402 402.33 204.538L417.086 208.518Z" fill="#FF9C82"/>
<path d="M364.907 256.308L353.45 255.068L353.995 266.575C353.995 266.575 362.675 268.683 366.296 262.062L364.907 256.308Z" fill="#FF9C82"/>
<path d="M344.013 260.164L346.134 265.124C346.307 265.526 346.592 265.869 346.955 266.113C347.317 266.357 347.743 266.491 348.18 266.501L353.995 266.637L353.45 255.13L345.65 256.978C345.32 257.058 345.011 257.208 344.744 257.419C344.477 257.629 344.258 257.895 344.103 258.197C343.948 258.499 343.859 258.831 343.844 259.171C343.828 259.51 343.886 259.849 344.013 260.164Z" fill="#FF9C82"/>
<path opacity="0.2" d="M445.358 487.704L445.706 499.782L455.799 499.943L455.452 487.866L445.358 487.704Z" fill="black"/>
<path d="M406.844 195.722C401.425 202.529 396.49 215.562 394.444 223.002C400.458 233.008 412.238 231.26 412.238 231.26C412.238 231.26 421.984 223.547 425.171 214.322C428.358 205.096 416.417 183.681 406.844 195.722Z" fill="#0344FD"/>
<path d="M469.439 197.16C471.832 214.594 468.199 237.274 470.952 270.32L416.962 273.742C407.142 231.818 406.088 214.222 405.046 202.653C404.848 200.402 405.376 198.147 406.552 196.217C407.727 194.287 409.49 192.784 411.581 191.927C424.303 186.657 446.127 185.876 461.119 188.517C463.244 188.888 465.196 189.925 466.692 191.479C468.188 193.033 469.15 195.023 469.439 197.16Z" fill="#0344FD"/>
<path d="M430.044 208.754C427.673 208.739 425.338 209.334 423.263 210.48C421.187 211.626 419.44 213.286 418.19 215.301H443.263C441.666 213.316 439.657 211.703 437.375 210.572C435.092 209.442 432.591 208.821 430.044 208.754Z" fill="white"/>
<path d="M444.019 216.244H417.632C417.006 217.42 416.527 218.67 416.206 219.964H446.202C445.61 218.649 444.878 217.402 444.019 216.244Z" fill="white"/>
<path d="M446.747 221.154H415.933C415.74 222.259 415.649 223.38 415.66 224.502H447.727C447.492 223.361 447.165 222.241 446.747 221.154Z" fill="white"/>
<path d="M428.11 242.916H439.121C440.402 242.386 441.594 241.663 442.655 240.771H424.08C425.325 241.657 426.68 242.378 428.11 242.916Z" fill="white"/>
<path d="M421.302 238.316H444.974C445.541 237.536 446.035 236.706 446.45 235.836H419.306C419.908 236.711 420.576 237.54 421.302 238.316Z" fill="white"/>
<path d="M417.992 233.703H447.305C447.59 232.809 447.798 231.892 447.925 230.962H416.801C417.132 231.903 417.53 232.819 417.992 233.703Z" fill="white"/>
<path d="M447.975 226.052H415.735C415.729 226.155 415.729 226.259 415.735 226.362C415.833 227.286 415.994 228.201 416.218 229.102H448.074C448.108 228.188 448.075 227.272 447.975 226.362C447.981 226.259 447.981 226.155 447.975 226.052Z" fill="white"/>
<path d="M443.511 162.614L428.928 175.485C431.024 180.953 431.867 186.843 423.559 189.447C423.105 189.587 422.72 189.893 422.48 190.303C420.521 193.7 420.112 198.983 429.263 198.164C436.102 197.579 442.483 194.488 447.181 189.484C447.52 189.168 447.722 188.732 447.745 188.269C447.768 187.807 447.61 187.353 447.305 187.004C442.345 181.672 442.68 169.508 443.511 162.614Z" fill="#FF9C82"/>
<path opacity="0.2" d="M437.559 167.859L428.879 175.485C429.423 176.772 429.838 178.109 430.119 179.478C433.591 178.82 438.08 175.1 438.142 171.814C438.215 170.47 438.017 169.125 437.559 167.859Z" fill="black"/>
<path d="M416.181 144.596C412.982 149.011 415.09 159.241 417.421 160.853C423.373 158.063 422.282 142.079 416.181 144.596Z" fill="#263238"/>
<path d="M443.771 151.354C443.771 161.361 444.193 167.214 439.431 172.67C432.276 180.866 419.666 177.109 416.714 167.313C414.061 158.497 414.594 143.617 424.154 139.004C426.238 137.961 428.556 137.473 430.883 137.587C433.21 137.701 435.469 138.413 437.441 139.655C439.413 140.896 441.031 142.625 442.14 144.675C443.249 146.724 443.811 149.025 443.771 151.354Z" fill="#FF9C82"/>
<path d="M443.102 161.262C444.565 157.914 436.654 159.91 436.654 159.91C436.654 159.91 435.414 149.197 438.811 145.03C435.376 147.076 426.275 147.014 424.39 145.03C420.558 146.965 415.474 147.51 412.226 145.291C408.977 143.071 409.138 137.789 411.234 135.272C413.9 137.752 417.682 134.329 415.995 132.655C421.327 129.456 430.367 131.192 432.115 133.027C431.704 132.371 431.567 131.579 431.734 130.823C431.901 130.067 432.359 129.407 433.008 128.985C433.008 128.985 434.062 133.04 437.261 132.866C442.916 132.556 449.537 134.49 447.008 139.835C451.05 140.256 452.984 144.869 451.782 148.515C450.579 152.16 454.2 152.818 454.609 151.714C455.973 154.281 454.882 155.806 452.513 156.748C458.713 163.916 445.495 166.098 443.04 170.76C443.015 170.711 441.328 165.342 443.102 161.262Z" fill="#263238"/>
<path d="M449.054 160.803C447.982 163.095 446.054 164.876 443.684 165.763C440.535 166.916 438.724 164.176 439.406 161.088C440.014 158.298 442.395 154.343 445.606 154.529C448.818 154.715 450.343 157.988 449.054 160.803Z" fill="#FF9C82"/>
<path d="M456.072 381.102C452.823 330.262 459.135 271.002 459.135 271.002L416.975 273.68C419.455 292.838 426.895 354.454 429.958 384.574C433.219 416.553 441.998 494.425 441.998 494.425L459.11 494.686C459.11 494.686 460.685 421.178 456.072 381.102Z" fill="#263238"/>
<path opacity="0.2" d="M455.762 375.608C455.762 374.939 455.7 374.282 455.663 373.612C454.621 350.722 455.316 326.802 456.345 307.83L453.741 309.479C442.655 325.909 449.773 356.822 455.911 378.671C455.861 377.654 455.799 376.625 455.762 375.608Z" fill="black"/>
<path d="M440.386 490.916L441.75 497.885L459.519 498.207L460.214 491.623L440.386 490.916Z" fill="#263238"/>
<path d="M429.362 155.446C429.362 156.252 429.015 156.947 428.482 156.984C427.949 157.021 427.478 156.389 427.428 155.57C427.378 154.752 427.775 154.07 428.308 154.033C428.842 153.996 429.313 154.628 429.362 155.446Z" fill="#263238"/>
<path d="M418.128 156.339C418.128 157.145 417.781 157.84 417.248 157.864C416.714 157.889 416.243 157.269 416.194 156.463C416.144 155.657 416.541 154.963 417.074 154.926C417.607 154.888 418.078 155.521 418.128 156.339Z" fill="#263238"/>
<path d="M422.505 155.955C421.67 158.505 420.489 160.929 418.996 163.159C419.578 163.517 420.231 163.745 420.91 163.826C421.588 163.908 422.277 163.841 422.927 163.63L422.505 155.955Z" fill="#FF9C82"/>
<path d="M426.486 165.577C427.389 165.408 428.249 165.058 429.013 164.549C429.778 164.04 430.433 163.382 430.937 162.614C430.966 162.557 430.974 162.491 430.958 162.43C430.942 162.368 430.903 162.314 430.85 162.279C430.823 162.264 430.793 162.254 430.761 162.251C430.73 162.248 430.698 162.251 430.668 162.26C430.638 162.27 430.61 162.285 430.586 162.305C430.562 162.325 430.542 162.35 430.528 162.378C429.951 163.215 429.189 163.908 428.301 164.403C427.413 164.897 426.422 165.181 425.407 165.23C425.375 165.232 425.343 165.24 425.314 165.254C425.286 165.268 425.26 165.288 425.239 165.312C425.218 165.336 425.202 165.365 425.193 165.395C425.183 165.426 425.18 165.458 425.184 165.49C425.184 165.522 425.19 165.553 425.203 165.582C425.215 165.611 425.234 165.637 425.258 165.658C425.281 165.679 425.309 165.695 425.339 165.704C425.369 165.714 425.4 165.717 425.432 165.714C425.785 165.689 426.137 165.643 426.486 165.577Z" fill="#263238"/>
<path d="M431.929 150.449C432.009 150.435 432.083 150.396 432.14 150.338C432.19 150.299 432.232 150.251 432.262 150.195C432.293 150.14 432.311 150.079 432.317 150.016C432.323 149.953 432.316 149.89 432.296 149.83C432.276 149.77 432.244 149.715 432.202 149.668C431.721 149.082 431.106 148.621 430.408 148.323C429.711 148.025 428.953 147.9 428.197 147.957C428.072 147.975 427.959 148.041 427.88 148.14C427.802 148.239 427.764 148.364 427.775 148.49C427.783 148.552 427.803 148.612 427.834 148.666C427.865 148.721 427.906 148.768 427.956 148.806C428.006 148.844 428.062 148.872 428.123 148.888C428.183 148.904 428.246 148.908 428.308 148.899C428.916 148.855 429.525 148.958 430.085 149.2C430.644 149.442 431.136 149.815 431.52 150.288C431.569 150.347 431.633 150.393 431.704 150.421C431.776 150.449 431.853 150.459 431.929 150.449Z" fill="#263238"/>
<path d="M415.4 152.185C415.479 152.177 415.555 152.15 415.622 152.107C415.688 152.064 415.744 152.006 415.784 151.937C416.062 151.402 416.461 150.939 416.95 150.586C417.439 150.232 418.004 149.999 418.599 149.904C418.668 149.909 418.738 149.9 418.803 149.876C418.869 149.853 418.928 149.815 418.978 149.766C419.027 149.718 419.066 149.659 419.091 149.594C419.115 149.529 419.126 149.46 419.121 149.39C419.117 149.321 419.097 149.253 419.065 149.192C419.032 149.131 418.986 149.078 418.93 149.036C418.875 148.994 418.811 148.964 418.743 148.949C418.675 148.934 418.605 148.934 418.537 148.949C417.786 149.053 417.069 149.331 416.445 149.762C415.821 150.193 415.306 150.764 414.941 151.429C414.883 151.539 414.87 151.668 414.904 151.789C414.939 151.909 415.019 152.011 415.127 152.074C415.206 152.135 415.301 152.174 415.4 152.185Z" fill="#263238"/>
<path d="M511.922 512.021L501.803 511.872L497.079 488.436L507.185 488.597L511.922 512.021Z" fill="#FF9C82"/>
<path d="M510.446 504.68L499.447 504.581C499.358 504.57 499.268 504.582 499.184 504.614C499.101 504.645 499.026 504.697 498.966 504.764C498.907 504.831 498.864 504.911 498.842 504.998C498.82 505.085 498.819 505.176 498.84 505.263L500.191 514.278C500.296 514.77 500.558 515.214 500.939 515.543C501.319 515.872 501.797 516.068 502.299 516.1C506.242 516.1 507.42 515.778 512.405 515.828C518.233 515.828 515.592 516.051 522.424 516.113C526.566 516.113 526.144 511.971 524.284 511.55C518.357 510.235 516.311 507.954 513.124 505.498C512.343 504.945 511.404 504.658 510.446 504.68Z" fill="#0344FD"/>
<path opacity="0.2" d="M497.079 488.448L499.509 500.514L509.628 500.675L507.197 488.597L497.079 488.448Z" fill="black"/>
<path d="M491.387 380.358C484.344 334.391 478.231 288.412 470.977 270.258L435.24 272.515C435.24 272.515 455.34 351.28 465.608 383.16C470.568 416.64 495.231 495.268 495.231 495.268L511.277 494.562C511.277 494.562 498.48 426.324 491.387 380.358Z" fill="#263238"/>
<path d="M492.726 492.441L495.256 499.286L513.038 498.716L512.628 492.144L492.726 492.441Z" fill="#263238"/>
<path d="M471.584 200.706C472.155 201.612 472.576 202.318 473.048 203.112C473.519 203.906 473.903 204.65 474.288 205.431C475.106 206.981 475.887 208.543 476.656 210.106C478.156 213.276 479.493 216.52 480.661 219.827C481.864 223.164 482.858 226.572 483.637 230.032L484.208 232.661L484.666 235.34C484.828 236.22 484.914 237.138 485.014 238.043L485.162 239.407L485.237 240.089V240.25V240.771C485.315 242.258 485.065 243.744 484.505 245.123C484.203 245.882 483.834 246.612 483.402 247.306C482.745 248.34 481.989 249.307 481.145 250.195C479.779 251.615 478.308 252.929 476.743 254.126C473.932 256.255 470.987 258.201 467.926 259.954C462.063 263.342 455.953 266.285 449.649 268.758L446.053 262.086C451.236 258.255 456.543 254.411 461.466 250.455C463.946 248.496 466.327 246.462 468.41 244.441C469.368 243.534 470.251 242.551 471.051 241.502C471.3 241.162 471.52 240.801 471.708 240.424C471.795 240.25 471.597 240.188 471.46 241.279C471.46 241.378 471.46 241.564 471.46 241.726V241.936V241.8L471.349 241.267L471.126 240.188C470.989 239.469 470.853 238.75 470.654 238.03L470.109 235.885L469.476 233.728C468.596 230.863 467.592 228.011 466.438 225.184C465.285 222.357 464.033 219.542 462.718 216.777C462.049 215.4 461.367 214.012 460.648 212.672L459.556 210.664L458.527 208.804L471.584 200.706Z" fill="#FF9C82"/>
<path d="M449.736 260.648L439.543 261.69L443.92 273.048C443.92 273.048 453.046 270.99 452.836 265.98L449.736 260.648Z" fill="#FF9C82"/>
<path d="M432.624 269.861L434.843 273.581C435.273 274.299 435.948 274.837 436.743 275.096C437.538 275.356 438.4 275.32 439.171 274.995L443.92 273.048L439.543 261.64L434 264.951C433.585 265.181 433.22 265.491 432.926 265.863C432.631 266.235 432.414 266.662 432.286 267.118C432.158 267.575 432.122 268.053 432.18 268.524C432.238 268.995 432.389 269.449 432.624 269.861Z" fill="#FF9C82"/>
<path d="M443.275 206.138C446.239 214.185 456.779 224.738 462.086 230.218C473.866 230.07 481.752 218.451 481.752 218.451C481.752 218.451 476.396 198.065 465.93 190.7C458.056 185.169 438.055 191.902 443.275 206.138Z" fill="#0344FD"/>
<path d="M421.6 375.125H177.022V397.842H421.6V375.125Z" fill="#263238"/>
<path opacity="0.2" d="M421.6 375.125H352.172V397.842H421.6V375.125Z" fill="black"/>
<path d="M191.667 397.842H177.022V520.515H191.667V397.842Z" fill="#263238"/>
<path opacity="0.2" d="M191.654 404.203L177.022 401.028V397.842H191.654V404.203Z" fill="black"/>
<path d="M421.612 397.842H406.968V520.515H421.612V397.842Z" fill="#263238"/>
<path opacity="0.2" d="M421.612 397.842H406.968V520.515H421.612V397.842Z" fill="black"/>
<path d="M366.817 397.842H352.172V520.515H366.817V397.842Z" fill="#263238"/>
<path opacity="0.2" d="M366.817 404.203L352.172 401.028V397.842H366.817V404.203Z" fill="black"/>
<path d="M237.497 397.842H222.853V520.515H237.497V397.842Z" fill="#263238"/>
<path opacity="0.2" d="M237.497 397.842H222.853V520.515H237.497V397.842Z" fill="black"/>
<path d="M396.75 261.045H213.392L197.11 332.345H380.469L396.75 261.045Z" fill="#263238"/>
<path d="M396.75 261.045H400.942L384.66 332.345H380.469L396.75 261.045Z" fill="black"/>
<path d="M423.088 289.565H158.807C150.589 289.565 143.927 296.227 143.927 304.445V360.245C143.927 368.463 150.589 375.125 158.807 375.125H423.088C431.306 375.125 437.968 368.463 437.968 360.245V304.445C437.968 296.227 431.306 289.565 423.088 289.565Z" fill="#0344FD"/>
<path opacity="0.2" d="M423.1 289.565H389.31C381.092 289.565 374.43 296.227 374.43 304.445V360.245C374.43 368.463 381.092 375.125 389.31 375.125H423.1C431.318 375.125 437.98 368.463 437.98 360.245V304.445C437.98 296.227 431.318 289.565 423.1 289.565Z" fill="black"/>
<path opacity="0.2" d="M363.568 311.674H154.789C154.131 311.674 153.501 311.413 153.036 310.948C152.57 310.483 152.309 309.852 152.309 309.194C152.309 308.536 152.57 307.905 153.036 307.44C153.501 306.975 154.131 306.714 154.789 306.714H363.568C364.226 306.714 364.857 306.975 365.322 307.44C365.787 307.905 366.048 308.536 366.048 309.194C366.048 309.852 365.787 310.483 365.322 310.948C364.857 311.413 364.226 311.674 363.568 311.674Z" fill="black"/>
<path d="M351.416 334.614H363.965C364.51 334.611 365.031 334.393 365.417 334.008C365.802 333.622 366.02 333.101 366.023 332.556C366.023 332.009 365.807 331.484 365.421 331.096C365.035 330.708 364.512 330.488 363.965 330.485H351.416C350.869 330.488 350.345 330.708 349.96 331.096C349.574 331.484 349.358 332.009 349.358 332.556C349.361 333.101 349.579 333.622 349.964 334.008C350.349 334.393 350.871 334.611 351.416 334.614Z" fill="white"/>
<path d="M351.416 343.406H363.965C364.512 343.402 365.035 343.183 365.421 342.795C365.807 342.407 366.023 341.882 366.023 341.335C366.02 340.79 365.802 340.268 365.417 339.883C365.031 339.498 364.51 339.28 363.965 339.276H351.416C350.871 339.28 350.349 339.498 349.964 339.883C349.579 340.268 349.361 340.79 349.358 341.335C349.358 341.882 349.574 342.407 349.96 342.795C350.345 343.183 350.869 343.402 351.416 343.406Z" fill="white"/>
<path d="M351.416 352.16H363.965C364.512 352.157 365.035 351.937 365.421 351.549C365.807 351.161 366.023 350.636 366.023 350.089C366.023 349.542 365.807 349.017 365.421 348.629C365.035 348.241 364.512 348.022 363.965 348.018H351.416C350.869 348.022 350.345 348.241 349.96 348.629C349.574 349.017 349.358 349.542 349.358 350.089C349.358 350.636 349.574 351.161 349.96 351.549C350.345 351.937 350.869 352.157 351.416 352.16Z" fill="white"/>
<path d="M203.496 309.194C205.914 288.275 190.91 271.324 170.016 271.324H322.772C343.691 271.324 358.732 288.275 356.252 309.194H203.496Z" fill="#0344FD"/>
<g opacity="0.3">
<path d="M203.496 309.194C205.914 288.275 190.91 271.324 170.016 271.324H322.772C343.691 271.324 358.732 288.275 356.252 309.194H203.496Z" fill="white"/>
</g>
<path d="M169.992 271.324H322.772C301.866 271.324 282.956 288.275 280.538 309.194L263.178 459.643C260.772 480.562 241.862 497.513 220.943 497.513H143.939C123.02 497.513 107.979 480.562 110.459 459.643L127.819 309.194C130.2 288.275 149.073 271.324 169.992 271.324Z" fill="#0344FD"/>
<path opacity="0.7" d="M169.992 271.324H322.772C301.866 271.324 282.956 288.275 280.538 309.194L263.178 459.643C260.772 480.562 241.862 497.513 220.943 497.513H143.939C123.02 497.513 107.979 480.562 110.459 459.643L127.819 309.194C130.2 288.275 149.073 271.324 169.992 271.324Z" fill="white"/>
<path d="M187.476 459.643C185.058 480.562 200.062 497.513 220.956 497.513H68.2C47.2812 497.513 32.24 480.562 34.72 459.643H187.476Z" fill="#0344FD"/>
<path opacity="0.5" d="M187.476 459.643C185.058 480.562 200.062 497.513 220.956 497.513H68.2C47.2812 497.513 32.24 480.562 34.72 459.643H187.476Z" fill="white"/>
<path d="M138.88 322.276H142.476L141.137 333.882H137.541L138.88 322.276Z" fill="#0344FD"/>
<path d="M145.08 322.276H148.428L152.061 328.699L152.793 322.276H156.178L154.839 333.882H151.466L147.845 327.509L147.114 333.882H143.741L145.08 322.276Z" fill="#0344FD"/>
<path d="M157.368 322.276H161.088L162.738 330.634L166.272 322.276H169.917L164.263 333.882H160.382L157.368 322.276Z" fill="#0344FD"/>
<path d="M169.446 328.092C169.565 326.406 170.313 324.826 171.542 323.665C172.815 322.574 174.454 322.007 176.13 322.078C176.915 322.013 177.705 322.119 178.446 322.388C179.187 322.658 179.86 323.085 180.42 323.64C180.9 324.246 181.244 324.949 181.428 325.7C181.612 326.451 181.632 327.233 181.486 327.992C181.385 329.172 181.016 330.313 180.408 331.328C179.866 332.19 179.104 332.892 178.2 333.362C177.183 333.818 176.083 334.063 174.968 334.08C173.853 334.097 172.746 333.886 171.715 333.461C170.892 333.024 170.238 332.326 169.855 331.477C169.411 330.407 169.27 329.236 169.446 328.092ZM173.03 328.092C172.853 328.935 172.98 329.813 173.389 330.572C173.588 330.828 173.847 331.033 174.143 331.166C174.439 331.3 174.764 331.36 175.088 331.34C175.436 331.353 175.782 331.292 176.105 331.161C176.427 331.031 176.719 330.834 176.96 330.584C177.55 329.804 177.879 328.858 177.903 327.881C178.079 327.063 177.942 326.209 177.518 325.488C177.315 325.234 177.053 325.033 176.755 324.901C176.457 324.769 176.132 324.711 175.807 324.731C175.467 324.727 175.129 324.794 174.816 324.926C174.502 325.058 174.219 325.254 173.984 325.5C173.391 326.241 173.056 327.155 173.03 328.104V328.092Z" fill="#0344FD"/>
<path d="M184.214 322.276H187.81L186.471 333.882H182.875L184.214 322.276Z" fill="#0344FD"/>
<path d="M197.321 329.133L200.347 330.088C200.078 330.896 199.657 331.645 199.107 332.295C198.607 332.878 197.979 333.336 197.272 333.634C196.433 333.955 195.54 334.107 194.643 334.081C193.607 334.121 192.574 333.935 191.617 333.535C190.807 333.11 190.158 332.43 189.77 331.601C189.272 330.489 189.112 329.256 189.311 328.054C189.419 326.376 190.149 324.798 191.357 323.628C192.605 322.556 194.215 322.001 195.858 322.078C197.042 321.998 198.219 322.312 199.206 322.97C200.035 323.663 200.585 324.632 200.756 325.698L197.507 326.393C197.473 326.122 197.384 325.86 197.247 325.624C197.089 325.357 196.862 325.139 196.59 324.992C196.295 324.838 195.967 324.761 195.635 324.768C195.252 324.761 194.872 324.846 194.529 325.017C194.186 325.187 193.889 325.438 193.663 325.748C193.211 326.427 192.95 327.215 192.907 328.03C192.704 328.917 192.804 329.847 193.192 330.671C193.369 330.914 193.606 331.108 193.879 331.234C194.153 331.36 194.454 331.414 194.754 331.39C195.049 331.406 195.345 331.365 195.623 331.267C195.902 331.169 196.159 331.017 196.379 330.82C196.816 330.335 197.138 329.759 197.321 329.133Z" fill="#0344FD"/>
<path d="M202.988 322.276H212.598L212.313 324.756H206.286L206.076 326.604H211.656L211.383 328.972H205.84L205.58 331.254H211.78L211.482 333.882H201.698L202.988 322.276Z" fill="#0344FD"/>
<path d="M262.582 364.176H133.052L134.738 349.494H264.269L262.582 364.176Z" fill="#0344FD"/>
<path opacity="0.8" d="M262.582 364.176H133.052L131.676 376.154H261.206L262.582 364.176Z" fill="white"/>
<path d="M253.63 441.899H214.21L215.016 434.818H254.448L253.63 441.899Z" fill="#0344FD"/>
<path opacity="0.8" d="M253.63 441.899H214.21L213.54 447.69H252.96L253.63 441.899Z" fill="white"/>
<path opacity="0.5" d="M259.817 388.145H130.287L131.676 376.154H261.206L259.817 388.145Z" fill="white"/>
<path opacity="0.8" d="M259.817 388.145H130.287L128.91 400.136H258.441L259.817 388.145Z" fill="white"/>
<path opacity="0.5" d="M257.064 412.114H127.522L128.91 400.136H258.441L257.064 412.114Z" fill="white"/>
<path opacity="0.8" d="M257.064 412.114H127.522L126.145 424.105H255.676L257.064 412.114Z" fill="white"/>
</svg>
